<svg width="24" height="24" viewBox="0 0 24 24" fill="none" xmlns="http://www.w3.org/2000/svg">
<path d="M1 5H23V20C23 21.1046 22.1046 22 21 22H3C1.89543 22 1 21.1046 1 20V5Z" fill="#252527"/>
<path d="M1 4C1 2.89543 1.89543 2 3 2H21C22.1046 2 23 2.89543 23 4V5H1V4Z" fill="#A3A3A4"/>
<path d="M6.97511 13.5L9.9734 16.1326L8.98584 17L5 13.5L8.98584 10L9.9734 10.8668L6.97511 13.5Z" fill="white"/>
<path d="M14.0266 10.8668L15.0142 10L19 13.5L15.0142 17L14.0266 16.1326L17.0249 13.5L14.0266 10.8668Z" fill="white"/>
</svg>
