<svg width="13" height="16" viewBox="0 0 13 16" fill="none" xmlns="http://www.w3.org/2000/svg">
<g id="Frame 4348">
<path id="Vector" d="M13.0002 15.0667C13.0002 15.3142 12.9044 15.5516 12.7337 15.7266C12.563 15.9017 12.3315 16 12.0901 16H11.3105C11.0691 16 10.8376 15.9017 10.667 15.7266C10.4963 15.5516 10.4004 15.3142 10.4004 15.0667V0.933307C10.4004 0.685779 10.4963 0.448389 10.667 0.273359C10.8376 0.0983304 11.0691 0 11.3105 0H12.0901C12.3315 0 12.563 0.0983304 12.7337 0.273359C12.9044 0.448389 13.0002 0.685779 13.0002 0.933307V15.0667Z" fill="url(#paint0_linear_3956_20411)"/>
<path id="Vector_2" d="M7.79955 5.73278C7.79955 5.9803 7.70367 6.21769 7.53299 6.39272C7.36232 6.56775 7.13083 6.66608 6.88946 6.66608H6.1098C5.86843 6.66608 5.63695 6.56775 5.46627 6.39272C5.29559 6.21769 5.19971 5.9803 5.19971 5.73278V2.26632C5.19971 2.01879 5.29559 1.7814 5.46627 1.60637C5.63695 1.43134 5.86843 1.33301 6.1098 1.33301H6.88946C7.13083 1.33301 7.36232 1.43134 7.53299 1.60637C7.70367 1.7814 7.79955 2.01879 7.79955 2.26632V5.73278Z" fill="url(#paint1_linear_3956_20411)"/>
<path id="Vector_3" d="M2.59909 11.0667C2.59909 11.3142 2.5032 11.5516 2.33253 11.7266C2.16185 11.9017 1.93036 12 1.68899 12H0.910098C0.668725 12 0.437238 11.9017 0.266562 11.7266C0.0958851 11.5516 0 11.3142 0 11.0667V4.93331C0 4.68578 0.0958851 4.44839 0.266562 4.27336C0.437238 4.09833 0.668725 4 0.910098 4H1.68975C1.93112 4 2.16261 4.09833 2.33328 4.27336C2.50396 4.44839 2.59985 4.68578 2.59985 4.93331L2.59909 11.0667Z" fill="url(#paint2_linear_3956_20411)"/>
<path id="Vector_4" d="M7.79955 13.7328C7.79955 13.9803 7.70367 14.2177 7.53299 14.3927C7.36232 14.5678 7.13083 14.6661 6.88946 14.6661H6.1098C5.86843 14.6661 5.63695 14.5678 5.46627 14.3927C5.29559 14.2177 5.19971 13.9803 5.19971 13.7328V10.2663C5.19971 10.0188 5.29559 9.7814 5.46627 9.60637C5.63695 9.43134 5.86843 9.33301 6.1098 9.33301H6.88946C7.13083 9.33301 7.36232 9.43134 7.53299 9.60637C7.70367 9.7814 7.79955 10.0188 7.79955 10.2663V13.7328Z" fill="url(#paint3_linear_3956_20411)"/>
</g>
<defs>
<linearGradient id="paint0_linear_3956_20411" x1="12.1675" y1="3.7099" x2="16.9016" y2="7.94576" gradientUnits="userSpaceOnUse">
<stop stop-color="#564DE2"/>
<stop offset="1" stop-color="#68AEFF"/>
</linearGradient>
<linearGradient id="paint1_linear_3956_20411" x1="5.19971" y1="-1.37436" x2="9.74352" y2="2.256" gradientUnits="userSpaceOnUse">
<stop stop-color="#6C63FF"/>
<stop offset="1" stop-color="#7AB7FE"/>
</linearGradient>
<linearGradient id="paint2_linear_3956_20411" x1="1.88314" y1="13.4536" x2="-3.31874" y2="9.28273" gradientUnits="userSpaceOnUse">
<stop stop-color="#4BFFDF"/>
<stop offset="1" stop-color="#7AB7FE"/>
</linearGradient>
<linearGradient id="paint3_linear_3956_20411" x1="7.3483" y1="17.7476" x2="2.33408" y2="13.12" gradientUnits="userSpaceOnUse">
<stop stop-color="#4BFFDF"/>
<stop offset="1" stop-color="#4D9FFF"/>
</linearGradient>
</defs>
</svg>
